<svg width="113" height="18" viewBox="0 0 113 18" fill="none" xmlns="http://www.w3.org/2000/svg">
<g clip-path="url(#clip0_110_52)">
<path d="M7.37281 0C12.2897 0 14.1329 2.38844 14.285 5.65661H10.7782C10.6215 4.31652 9.85658 2.95365 7.26683 2.95365C5.13327 2.95365 3.96741 3.62369 3.96741 5.09141C3.96741 9.0752 14.7274 6.03948 14.7274 12.8812C14.7274 16.4046 12.3864 17.9954 7.45114 17.9954C1.96288 17.9954 0.197996 15.607 0.0136719 12.2385H3.62641C3.70475 13.729 4.71855 15.0418 7.52949 15.0418C10.0732 15.0418 11.0869 14.3444 11.0869 12.904C11.0869 9.61306 0.32702 12.4482 0.32702 5.21902C0.313195 1.87336 2.86147 0 7.37281 0Z" fill="white"/>
<path d="M16.2484 12.8812V5.21902H19.6261V12.6488C19.6261 14.5495 20.7459 15.1922 22.1237 15.1922C24.2296 15.1922 25.1374 13.5239 25.1374 10.821V5.21902H28.4921V17.7402H25.3955L25.2157 15.8395C24.3586 17.2069 22.9808 17.9954 20.8749 17.9954C17.9718 17.9954 16.2207 16.4821 16.2484 12.8812Z" fill="white"/>
<path d="M30.5703 17.7402V0.25528H33.948V6.73691C34.8697 5.52445 36.2521 4.95926 37.9801 4.95926C41.2519 4.95926 43.7495 6.99216 43.7495 11.491C43.7495 15.9899 41.2288 17.9955 37.9801 17.9955C36.2106 17.9955 34.8604 17.4075 33.948 16.1722L33.6623 17.7174L30.5703 17.7402ZM33.948 12.8539C34.3121 14.6042 35.4825 15.3745 37.0401 15.3745C38.8833 15.3745 40.2381 14.2168 40.2381 11.491C40.2381 8.76527 38.8879 7.60752 37.0401 7.60752C35.5332 7.60752 34.3628 8.35504 33.948 10.1281V12.8539Z" fill="white"/>
<path d="M50.6108 4.95923C54.4032 4.95923 55.993 6.58189 56.1727 8.89286H52.8964C52.7673 7.83993 52.1683 7.27473 50.6384 7.27473C49.1085 7.27473 48.4265 7.78979 48.4265 8.61026C48.4265 11.2084 56.4584 9.38516 56.4584 14.2168C56.4584 16.9516 54.2512 17.9954 50.6614 17.9954C46.1916 17.9954 44.7861 16.35 44.6709 13.9615H48.0486C48.127 14.9369 48.7767 15.6845 50.6246 15.6845C52.3388 15.6845 53.0392 15.1694 53.0392 14.2669C53.0392 11.9878 44.9842 13.8567 44.9842 8.74246C44.9704 6.22182 47.3067 4.95923 50.6108 4.95923Z" fill="white"/>
<path d="M56.7168 7.60751V5.21903H58.8227V1.69562H62.2097V5.21903H65.486V7.60751H62.2097V12.9587C62.2097 14.6042 62.4953 14.9369 63.8732 14.9369H65.5598V17.7402H63.1958C60.5185 17.7402 58.8273 16.8286 58.8273 13.9341V7.60751H56.7168Z" fill="white"/>
<path d="M74.9648 9.27576C74.8865 7.96758 74.1354 7.37504 72.5502 7.37504C70.965 7.37504 70.2093 7.83085 70.0802 9.22563H66.8177C66.9467 6.80983 68.5089 4.98203 72.5871 4.98203C76.2735 4.98203 78.3333 6.3221 78.3333 9.27576V13.957C78.3333 14.7273 78.5684 15.0372 79.0338 15.0372H79.4946V17.7721H78.1951C76.6606 17.7721 75.8312 17.257 75.4302 16.1768C74.5731 17.2844 73.1262 18.0274 70.8544 18.0274C68.6978 18.0274 66.3062 17.3619 66.3062 14.5085C66.2832 9.27575 74.7575 11.6961 74.9648 9.27576ZM71.8866 15.7848C73.9649 15.7848 74.9787 14.3717 74.9787 12.4163V11.8785C73.1354 12.8812 69.9097 12.1611 69.9097 14.2669C69.8729 15.2013 70.5042 15.7848 71.8866 15.7848Z" fill="white"/>
<path d="M79.1533 7.60751V5.21903H81.2546V1.69562H84.637V5.21903H87.9133V7.60751H84.637V12.9587C84.637 14.6042 84.9227 14.9369 86.3005 14.9369H87.9871V17.7402H85.6231C82.9458 17.7402 81.2546 16.8286 81.2546 13.9341V7.60751H79.1533Z" fill="white"/>
<path d="M92.669 0.25528V3.10864H89.2866V0.25528H92.669ZM89.2866 5.21905H92.669V17.7402H89.2866V5.21905Z" fill="white"/>
<path d="M107.12 13.1912C106.521 16.4821 104.079 17.9954 100.752 17.9954C96.9316 17.9954 94.0977 15.9898 94.0977 11.491C94.0977 6.99213 96.9316 4.95923 100.752 4.95923C104.079 4.95923 106.498 6.44971 107.12 9.71787H103.613C103.465 9.08836 103.097 8.53102 102.573 8.14471C102.049 7.75839 101.404 7.56808 100.752 7.60749C98.9823 7.60749 97.6044 8.74244 97.6044 11.491C97.6044 14.2395 98.9869 15.3745 100.752 15.3745C102.134 15.3745 103.171 14.7045 103.636 13.1912H107.12Z" fill="white"/>
<path d="M107.208 3.1269C107.207 2.55985 107.376 2.00527 107.694 1.53328C108.011 1.0613 108.464 0.693101 108.993 0.475268C109.522 0.257435 110.105 0.199744 110.667 0.309485C111.23 0.419227 111.747 0.691472 112.153 1.0918C112.559 1.49213 112.835 2.00255 112.948 2.55852C113.061 3.1145 113.004 3.69106 112.786 4.21529C112.567 4.73952 112.197 5.18788 111.72 5.50366C111.244 5.81945 110.684 5.98848 110.111 5.98938C109.725 6.00892 109.34 5.94834 108.979 5.81152C108.619 5.67471 108.291 5.46469 108.018 5.19502C107.744 4.92535 107.531 4.60199 107.391 4.24578C107.252 3.88958 107.189 3.50844 107.208 3.1269ZM107.848 3.1269C107.85 3.56598 107.983 3.99472 108.23 4.35935C108.478 4.72397 108.828 5.00823 109.238 5.17644C109.648 5.34464 110.1 5.3893 110.535 5.30483C110.971 5.22035 111.371 5.0105 111.687 4.7016C112.002 4.3927 112.219 3.99852 112.308 3.56852C112.398 3.13852 112.358 2.69184 112.192 2.28458C112.026 1.87731 111.742 1.52759 111.376 1.27928C111.01 1.03097 110.578 0.895137 110.134 0.888848C109.829 0.864781 109.522 0.905843 109.234 1.00923C108.946 1.11261 108.684 1.27591 108.466 1.4881C108.247 1.70029 108.078 1.95642 107.968 2.23915C107.858 2.52187 107.811 2.82462 107.83 3.1269H107.848ZM108.839 4.62195V1.6683H110.18C110.959 1.6683 111.429 1.90532 111.429 2.61183C111.45 2.82031 111.388 3.02868 111.256 3.19286C111.125 3.35704 110.934 3.46416 110.724 3.49154C110.833 3.55211 110.923 3.6402 110.986 3.7468L111.535 4.62195H110.765L110.245 3.84709C110.193 3.75223 110.116 3.67385 110.021 3.62132C109.926 3.5688 109.818 3.54432 109.71 3.5508H109.59V4.62195H108.839ZM109.59 3.01295H110.051C110.35 3.01295 110.576 2.93545 110.576 2.6027C110.576 2.26996 110.35 2.22894 110.051 2.22894H109.59V3.01295Z" fill="white"/>
</g>
<defs>
<clipPath id="clip0_110_52">
<rect width="113" height="18" fill="white"/>
</clipPath>
</defs>
</svg>
