<svg width="90" height="65" viewBox="0 0 90 65" fill="none" xmlns="http://www.w3.org/2000/svg">
<g clip-path="url(#clip0_8_50)">
<path d="M20.5 39.4C22.2 39.3 23.3 38.8 23.7 37.9C24.6 36.5 23.8 36.3 22.9 36.1C19.9 35.3 17.3 32.2 17.1 27.8C16.6 20.3 27.2 15 33.1 13.1C37.9 11.5 43.2 9.99999 46.4 9.09999C45.9 10.6 45.3 12.1 44.9 13.5C42.6 21.4 40.2 31.2 39.2 36.1C38.6 38.9 38.7 41 39.2 42.5C40.1 45.4 42.6 46.7 42.9 45.1L43 44.9C44.7 38.9 51.9 19.9 54.9 19C55.6 18.8 54.9 19.9 53.6 24C52.4 27.7 50.6 32.1 51.5 35.4C52.2 37.6 55.9 41.2 58.7 40.3C62.3 39.1 65.6 33.6 67.3 26.2C67.3 26.1 67.3 26.1 67.3 26C68.5 21.5 69.6 17.2 70.2 13.5C70.8 13.4 71.5 13.4 72.2 13.3C73.5 13.2 73.3 14.4 72.7 16.4C71.5 21.1 69.7 26 70.8 29.3C71.8 32.4 75.8 34.7 78.6 33.8C80.9 33 83.3 30.5 85.2 26.8C86.8 28.6 89.4 29.9 91.4 29.2C93.1 28.7 94.8 26.4 96.5 23.5C98.1 25.1 101 26.5 103 25.9C106.6 24.7 110 19.2 111.6 11.7C112.1 9.69999 108.2 7.99999 107.6 9.89999C105 17.2 103.5 20.7 102.4 21C101.8 21.2 100.7 20.6 100.4 19.7C100.1 18.8 100.2 17.7 100.7 15.9C103.1 7.79999 104.9 4.49999 104.4 2.89999C104.1 1.89999 101.8 -0.400006 100.4 0.199994C99.6 0.499994 98.9 1.49999 98.4 3.19999C98 4.29999 97.5 6.19999 96.9 8.39999V8.49999C94 18.4 92.3 24 91 24.5C89.9 24.8 89.1 23.6 89 21.6C88.9 19.8 89.7 17 90.6 14.3C92.3 9.49999 93.2 8.29999 92.7 6.69999C92.4 5.69999 90.1 3.39999 88.6 3.99999C87.9 4.19999 87.2 5.29999 86.7 6.99999C85.5 10.8 84.5 14.4 84 17.5V17.6C81.4 24.9 80 28.3 78.3 28.9C77.4 29.2 76.5 28.3 76.2 27.2C75.6 25.2 78 20.3 79.2 14.9C79.7 12.6 78.8 10.1 74 10.4C72.8 10.5 71.8 10.5 70.8 10.5C70.8 9.59999 70.9 8.69999 70.8 7.89999C70.7 4.79999 69.8 3.99999 68.5 4.39999C66 5.19999 62.6 9.79999 63.4 12C63.6 12.7 64.5 13.1 66 13.3C65.6 16.4 64.7 20.3 63.3 24.6C63.2 25 63.1 25.4 63 25.7C60.7 32.1 59.3 35.2 58.3 35.5C57.7 35.7 57.1 34.9 56.9 33.9C56.7 33 56.8 31.9 57.4 30.1C58.6 26.2 60.5 22.3 59.6 19.7C58.8 17.3 56.5 14.8 54.7 15.3C52.4 15.9 49.4 20.4 46.7 25.6C49.2 18 51.9 11 53.8 7.19999C54.4 6.09999 51.7 2.79999 49.7 3.29999H49.6H49.5C44.8 4.69999 39 6.39999 31.7 8.79999C20.2 12.6 10.7 20 11.5 29.5C11.9 35.8 16.3 39.7 20.5 39.4Z" fill="black"/>
<path d="M37.7 55.9C36.5 52.3 33.8 49.6 29.5 48.8C32.2 42.4 35.8 29.2 37.8 16.4C38.1 14.8 33.8 13.4 33.5 14.8C31 30.1 25.4 43.9 22.9 48.9C21.9 49.1 20.8 49.4 19.7 49.7C9 53.2 0.4 61.1 0 70.5C0 72.1 0.2 73.5 0.6 74.7C2.2 79.5 6.7 81.8 10 80.7C11.2 80.3 11.5 79.8 11.3 79.2C11.1 78.7 10.7 78.3 10.3 78.3C8.3 78 6.7 76.3 5.9 73.9C3.4 66.1 10 56.2 20.2 52.9C22 52.3 23.8 52 25.3 51.9C26.2 51.9 27 51.9 27.7 52C30.4 52.4 32.4 53.9 33.1 56.3C35.3 63 29.6 69.1 23.6 71L23 71.3C24 67 24.9 62.5 25.6 58C25.9 56.3 21.5 54.9 21.3 56.4C18.6 71.8 13 85.7 10.5 90.6C9.9 91.7 13.3 94.7 14.7 94.3C16.4 93.7 19.6 85 22.3 74C23.1 74.9 24.4 75.5 25.8 75.1C34.3 72.3 40.5 64.3 37.7 55.9Z" fill="black"/>
<path d="M67.3001 38.9C65.6001 39.5 64.7001 43.7 65.2001 45.1C65.6001 46.2 67.9001 47.5 69.0001 47.1C70.4001 46.6 72.5001 43.7 71.9001 42C71.4001 40.3 68.3001 38.5 67.3001 38.9Z" fill="black"/>
<path d="M130.5 39.9C127.9 47.2 126.4 50.7 125.4 51C124.8 51.2 124.3 50.3 124 49.4C123.7 48.5 124 47.4 124.5 45.6C125.7 41.7 128 37.5 127.2 34.9C126.4 32.5 124.2 30.2 122.4 30.6C120.4 31.1 117.7 34.7 115.2 39C114.1 36.8 111.9 34.2 110.4 34.5C108 35.1 104.6 39.9 101.8 45.3C102.6 43.1 103.2 41.8 103.9 40.1C104.5 38.7 101.6 36.2 100.3 36.6C99 37 97.1 44.3 95.4 51.6C92.9 58.6 91.9 61.8 89.9 62.5C88.1 63.1 85.9 63.3 83.9 63.2C88 55.7 92.6 48 94.8 43.9C95.5 42.4 92.8 40.2 91.5 40.6C89.7 41 84.8 46.6 80.5 45.4C78.8 45 78.1 45 76.9 45.4C75.6 45.8 75.2 46.4 74.9 48.1C74.4 51 73.5 54.6 71.9 59.2C71.9 59.3 71.8 59.4 71.8 59.4C69.3 66.4 67.8 69.8 66.8 70.1C66.2 70.3 65.1 69.7 64.8 68.8C64.5 67.9 64.7 66.7 65.1 65C67.5 56.9 69.3 53.6 68.8 52C68.5 51 66.1 48.8 64.7 49.3C64 49.5 63.3 50.6 62.7 52.3C62.1 54.4 60.7 59.1 60 63.3C57.6 70.2 56.2 73.5 54.5 74C53.6 74.3 52.7 73.5 52.4 72.5C51.8 70.5 54.1 65.6 55.3 59.9C55.8 57.6 55.4 55.2 50.6 54.9C49.2 54.8 48.1 54.8 47 54.8C47 54.1 47.1 53.5 47.1 52.9C46.9 49.7 46 49 44.7 49.4C42.2 50.2 39.7 54.5 40.4 56.7C40.6 57.4 41.3 57.9 42.7 58.2C41.9 62.9 39.8 70.6 36.7 78.3C35.7 81 40.6 83.2 41.3 81.3C43.1 75.9 45.5 65.3 46.5 58.4C47.1 58.3 47.7 58.3 48.4 58.3C49.7 58.2 49.5 59.4 49 61.3C48.6 63.1 48 65.5 47.5 67.3C46.8 70.2 46.5 72.2 47.2 74.3C48.2 77.5 51.9 79.7 55 78.7C57.1 78 59.3 75.8 61.1 72.5C62.8 74.1 65.3 75.3 67.2 74.7C70.7 73.6 73.9 68.5 75.6 61.6V61.5C76.7 57.5 77.7 54.1 78.4 50.6H79.6C82.4 50.6 84.4 49 86.7 47.6C82.9 54.2 78.3 63.6 76.1 68.6C75.1 70.9 79.2 72 80.2 70.2C80.6 69.4 81 68.6 81.4 67.8C83.9 68.1 87.6 68 90.4 67.1C92.1 66.6 93.7 65.2 95.2 63.2C96.3 65 97.9 65.6 98.2 64.3L98.3 64.1C100 58 107.5 38.4 110.6 37.4C111.3 37.2 110.5 39.7 109.1 43.8C107.9 47.5 107.3 49.2 106.8 52C106.3 54.9 106.1 56.2 106.6 57.7C107.5 60.6 110 61.9 110.3 60.3L110.4 60.1C112.1 54 119.6 34.4 122.6 33.5C123.4 33.2 122.2 35.1 120.9 39.2C119.7 42.9 117.9 47.3 118.8 50.6C119.4 52.8 123.2 56.4 126 55.5C129.6 54.3 133 48.8 134.6 41.4C135 39.7 131.1 38 130.5 39.9Z" fill="black"/>
</g>
<defs>
<clipPath id="clip0_8_50">
<rect width="90" height="65" fill="white"/>
</clipPath>
</defs>
</svg>
